<?xml version="1.0" encoding="utf-8"?>
<!-- Generator: Adobe Illustrator 23.0.4, SVG Export Plug-In . SVG Version: 6.00 Build 0)  -->
<svg version="1.1" id="Layer_1" xmlns="http://www.w3.org/2000/svg" xmlns:xlink="http://www.w3.org/1999/xlink" x="0px" y="0px"
	 viewBox="0 0 504.4 504.4" style="enable-background:new 0 0 504.4 504.4;" xml:space="preserve">
<style type="text/css">
	.st0{fill:#FFFFFF;}
</style>
<g>
	<path class="st0" d="M409.1,1H95.4C43.3,1,1,43.3,1,95.4v313.6c0,52.2,42.3,94.4,94.4,94.4h313.6c52.2,0,94.4-42.3,94.4-94.4V95.4
		C503.5,43.3,461.2,1,409.1,1z M423.3,118.8c-7.4-2.3-16.6-4-28-4c-28.6,0-40.6,22.3-40.6,49.7v14.3h56v64h-55.5v215.5h-87.5V242.8
		h-36.6v-64h36.6V168c0-33.7,10.3-70.9,35.5-93.7c21.7-20.6,52-28,77.2-28c19.4,0,34.3,2.3,46.3,5.7L423.3,118.8z"/>
</g>
</svg>
