<?xml version="1.0" encoding="utf-8"?>
<!-- Generator: Adobe Illustrator 23.0.4, SVG Export Plug-In . SVG Version: 6.00 Build 0)  -->
<svg version="1.1" id="Layer_1" xmlns="http://www.w3.org/2000/svg" xmlns:xlink="http://www.w3.org/1999/xlink" x="0px" y="0px"
	 viewBox="0 0 138.4 36.8" style="enable-background:new 0 0 138.4 36.8;" xml:space="preserve">
<style type="text/css">
	.st0{fill:#CE0E2D;}
</style>
<g>
	<g>
		<path class="st0" d="M1.1,2.3h3.4c1.9,0,3.2,0.5,4,1.5C9,4.5,9.2,5.3,9.2,6.4c0,1.3-0.4,2.2-1.3,2.9c-0.8,0.6-1.9,1-3.3,1H3.5
			c-0.2,0-0.3,0.1-0.3,0.3v4.4c0,0.3-0.1,0.5-0.2,0.5c-0.1,0.1-0.3,0.1-0.5,0.1H1.1c-0.2,0-0.4,0-0.5-0.1c-0.1-0.1-0.2-0.3-0.2-0.6
			V3c0-0.2,0-0.4,0.1-0.5C0.6,2.4,0.8,2.3,1.1,2.3z M3.4,7.7h1.1c0.5,0,0.9-0.1,1.2-0.4C6.1,7,6.2,6.7,6.2,6.2c0-0.4-0.1-0.8-0.4-1
			C5.6,4.9,5.1,4.7,4.5,4.7h-1C3.3,4.7,3.2,4.8,3.2,5v2.6C3.2,7.7,3.3,7.7,3.4,7.7z"/>
		<path class="st0" d="M13.3,2.3h2.4c0.2,0,0.3,0,0.4,0.1c0.1,0.1,0.2,0.2,0.2,0.4l3,12.1c0,0.1,0,0.2,0,0.2c0,0.2-0.1,0.3-0.4,0.3
			h-1.8c-0.2,0-0.3,0-0.4-0.2c-0.1-0.1-0.1-0.2-0.2-0.4l-0.4-1.4c-0.1-0.2-0.2-0.3-0.4-0.3h-2.6c-0.2,0-0.3,0.1-0.4,0.3L12.5,15
			c0,0.1-0.1,0.2-0.2,0.3c-0.1,0.1-0.2,0.1-0.4,0.1h-1.8c-0.2,0-0.4-0.1-0.4-0.4c0,0,0-0.1,0-0.1c0,0,0-0.1,0-0.1l2.9-12.1
			c0-0.2,0.1-0.4,0.2-0.4C13,2.4,13.1,2.3,13.3,2.3z M13.7,10.7h1.6c0.1,0,0.2-0.1,0.1-0.3l-0.8-3.3c0,0,0-0.1-0.1-0.1
			c0,0-0.1-0.1-0.1-0.1c-0.1,0.1-0.1,0.1-0.1,0.2l-0.7,3.3C13.5,10.6,13.6,10.7,13.7,10.7z"/>
		<path class="st0" d="M20.4,14.8v-1.7c0-0.2,0-0.3,0.1-0.3c0.1-0.1,0.2-0.1,0.3-0.1c0.1,0,0.2,0,0.4,0.1c0.1,0,0.2,0.1,0.3,0.1
			c0.2,0.1,0.5,0.1,1,0.2c0.4,0.1,0.8,0.1,1,0.1c0.6,0,1-0.1,1.3-0.3c0.3-0.2,0.5-0.5,0.5-0.9c0-0.6-0.4-1.1-1.1-1.7
			c-0.5-0.3-0.9-0.6-1.2-0.8c-0.9-0.6-1.6-1.1-1.9-1.6c-0.5-0.6-0.7-1.3-0.7-2.1c0-1.2,0.4-2,1.2-2.6c0.8-0.6,1.8-0.9,3.2-0.9
			c0.6,0,1.1,0.1,1.7,0.2c0.9,0.2,1.3,0.4,1.3,0.7v1.7c0,0.1,0,0.1,0,0.1C27.7,5,27.6,5,27.4,5l-0.9-0.2c-0.5-0.1-0.8-0.2-1-0.2
			c-0.1,0-0.3,0-0.6,0c-0.5,0-0.9,0.1-1.1,0.2c-0.2,0.2-0.3,0.4-0.3,0.6c0,0.4,0.7,1.1,2.1,2c0.8,0.6,1.4,1.1,1.8,1.6
			c0.6,0.8,0.9,1.7,0.9,2.7c0,1.2-0.4,2.1-1.2,2.8c-0.8,0.7-2,1-3.4,1c-0.5,0-1,0-1.6-0.1c-0.6-0.1-1-0.2-1.3-0.3
			c-0.2-0.1-0.3-0.1-0.3-0.2C20.5,15,20.4,14.9,20.4,14.8z"/>
		<path class="st0" d="M29.8,2.3h8.3c0.2,0,0.3,0,0.3,0.1c0.1,0.1,0.1,0.2,0.1,0.3v1.7c0,0.3-0.1,0.4-0.4,0.4h-2.4
			c-0.2,0-0.3,0.1-0.3,0.3v9.6c0,0.2,0,0.4-0.1,0.5c-0.1,0.1-0.3,0.2-0.6,0.2h-1.5c-0.3,0-0.5-0.1-0.5-0.2c-0.1-0.1-0.1-0.3-0.1-0.5
			V5.2c0-0.2-0.1-0.3-0.3-0.3h-2.4c-0.3,0-0.5-0.1-0.5-0.4V2.7C29.4,2.5,29.5,2.3,29.8,2.3z"/>
		<path class="st0" d="M39.4,14.8V3c0-0.2,0-0.4,0.1-0.5c0.1-0.1,0.3-0.2,0.6-0.2h6.2c0.3,0,0.5,0.1,0.5,0.2
			c0.1,0.1,0.1,0.3,0.1,0.5v1.3c0,0.1,0,0.2-0.1,0.3c-0.1,0.1-0.2,0.1-0.4,0.1h-3.8c-0.2,0-0.3,0.1-0.3,0.3v2c0,0.2,0.1,0.3,0.2,0.3
			h3c0.1,0,0.2,0,0.3,0.1c0.1,0.1,0.1,0.2,0.1,0.3v1.7c0,0.3-0.1,0.4-0.4,0.4h-3c-0.2,0-0.2,0.1-0.2,0.3v2.7c0,0.2,0.1,0.2,0.2,0.2
			h4.2c0.2,0,0.4,0,0.4,0.1c0.1,0.1,0.1,0.2,0.1,0.3v1.3c0,0.2,0,0.4-0.1,0.5c-0.1,0.1-0.3,0.2-0.6,0.2H40c-0.2,0-0.4,0-0.5-0.1
			C39.4,15.3,39.4,15.1,39.4,14.8z"/>
		<path class="st0" d="M48.5,14.8V3c0-0.2,0-0.4,0.1-0.5c0.1-0.1,0.3-0.2,0.6-0.2h1.5c0.3,0,0.5,0.1,0.5,0.2
			c0.1,0.1,0.1,0.3,0.1,0.5v9.8c0,0.2,0.1,0.2,0.2,0.2H55c0.2,0,0.4,0,0.4,0.1c0.1,0.1,0.1,0.2,0.1,0.3v1.3c0,0.2,0,0.4-0.1,0.5
			c-0.1,0.1-0.3,0.2-0.6,0.2h-5.7c-0.2,0-0.4,0-0.5-0.1C48.6,15.3,48.5,15.1,48.5,14.8z"/>
		<path class="st0" d="M56.5,14.8V3c0-0.2,0-0.4,0.1-0.5c0.1-0.1,0.3-0.2,0.6-0.2h6.2c0.3,0,0.5,0.1,0.5,0.2C64,2.6,64,2.8,64,3v1.3
			c0,0.1,0,0.2-0.1,0.3c-0.1,0.1-0.2,0.1-0.4,0.1h-3.8c-0.2,0-0.3,0.1-0.3,0.3v2c0,0.2,0.1,0.3,0.2,0.3h3c0.1,0,0.2,0,0.3,0.1
			c0.1,0.1,0.1,0.2,0.1,0.3v1.7c0,0.3-0.1,0.4-0.4,0.4h-3c-0.2,0-0.2,0.1-0.2,0.3v2.7c0,0.2,0.1,0.2,0.2,0.2h4.2
			c0.2,0,0.4,0,0.4,0.1c0.1,0.1,0.1,0.2,0.1,0.3v1.3c0,0.2,0,0.4-0.1,0.5c-0.1,0.1-0.3,0.2-0.6,0.2h-6.4c-0.2,0-0.4,0-0.5-0.1
			C56.6,15.3,56.5,15.1,56.5,14.8z"/>
		<path class="st0" d="M66.3,2.3h3.5c1.6,0,2.8,0.4,3.6,1.2c0.6,0.7,1,1.5,1,2.5c0,0.9-0.2,1.7-0.6,2.3c-0.3,0.5-0.8,0.8-1.3,1
			c-0.1,0-0.2,0.1-0.2,0.2c0,0.1,0,0.2,0.1,0.3l2.4,5.1c0,0.1,0.1,0.2,0.1,0.3c0,0.3-0.2,0.4-0.5,0.4h-2c-0.3,0-0.5-0.1-0.6-0.2
			c0,0-0.1-0.1-0.1-0.2l-2.2-4.9C69.3,10,69.2,9.9,69,9.9h-0.4c-0.1,0-0.2,0.1-0.2,0.2v4.7c0,0.3-0.1,0.5-0.2,0.5
			c-0.1,0.1-0.3,0.1-0.5,0.1h-1.5c-0.2,0-0.4,0-0.5-0.1c-0.1-0.1-0.2-0.3-0.2-0.6V3c0-0.2,0-0.4,0.1-0.5C65.8,2.4,66,2.3,66.3,2.3z
			 M68.5,5.1v2.3c0,0.2,0.1,0.3,0.3,0.3h0.9c0.5,0,0.9-0.1,1.3-0.4c0.3-0.3,0.5-0.6,0.5-1.1c0-0.4-0.1-0.7-0.4-1
			c-0.3-0.3-0.8-0.5-1.4-0.5h-0.8C68.6,4.7,68.5,4.8,68.5,5.1z"/>
		<path class="st0" d="M75.7,14.8V3c0-0.2,0-0.4,0.1-0.5c0.1-0.1,0.3-0.2,0.6-0.2h1.5c0.3,0,0.5,0.1,0.5,0.2
			c0.1,0.1,0.1,0.3,0.1,0.5v11.8c0,0.3-0.1,0.5-0.2,0.5c-0.1,0.1-0.3,0.1-0.5,0.1h-1.5c-0.2,0-0.4,0-0.5-0.1
			C75.8,15.3,75.7,15.1,75.7,14.8z"/>
		<path class="st0" d="M83,2.3h2.4c0.2,0,0.3,0,0.4,0.1c0.1,0.1,0.2,0.2,0.2,0.4l3,12.1c0,0.1,0,0.2,0,0.2c0,0.2-0.1,0.3-0.4,0.3
			h-1.8c-0.2,0-0.3,0-0.4-0.2c-0.1-0.1-0.1-0.2-0.2-0.4l-0.4-1.4c0-0.2-0.2-0.3-0.4-0.3h-2.6c-0.2,0-0.3,0.1-0.4,0.3L82.1,15
			c0,0.1-0.1,0.2-0.2,0.3c-0.1,0.1-0.2,0.1-0.4,0.1h-1.8c-0.2,0-0.4-0.1-0.4-0.4c0,0,0-0.1,0-0.1c0,0,0-0.1,0-0.1l2.9-12.1
			c0-0.2,0.1-0.4,0.2-0.4C82.6,2.4,82.8,2.3,83,2.3z M83.4,10.7h1.6c0.1,0,0.2-0.1,0.1-0.3l-0.8-3.3c0,0,0-0.1-0.1-0.1
			c0,0-0.1-0.1-0.1-0.1C84,7,84,7.1,84,7.1l-0.7,3.3C83.2,10.6,83.2,10.7,83.4,10.7z"/>
		<path class="st0" d="M95.7,14.8v-1.7c0-0.2,0-0.3,0.1-0.3c0.1-0.1,0.2-0.1,0.3-0.1c0.1,0,0.2,0,0.4,0.1c0.1,0,0.2,0.1,0.3,0.1
			c0.2,0.1,0.5,0.1,1,0.2c0.4,0.1,0.8,0.1,1,0.1c0.6,0,1-0.1,1.3-0.3c0.3-0.2,0.5-0.5,0.5-0.9c0-0.6-0.4-1.1-1.1-1.7
			c-0.5-0.3-0.9-0.6-1.2-0.8c-0.9-0.6-1.6-1.1-1.9-1.6c-0.5-0.6-0.7-1.3-0.7-2.1c0-1.2,0.4-2,1.2-2.6c0.8-0.6,1.8-0.9,3.2-0.9
			c0.6,0,1.1,0.1,1.7,0.2c0.9,0.2,1.3,0.4,1.3,0.7v1.7c0,0.1,0,0.1,0,0.1c0,0.2-0.1,0.2-0.3,0.2l-0.9-0.2c-0.5-0.1-0.8-0.2-1-0.2
			c-0.1,0-0.3,0-0.6,0c-0.5,0-0.9,0.1-1.1,0.2c-0.2,0.2-0.3,0.4-0.3,0.6c0,0.4,0.7,1.1,2.1,2c0.8,0.6,1.4,1.1,1.8,1.6
			c0.6,0.8,0.9,1.7,0.9,2.7c0,1.2-0.4,2.1-1.2,2.8c-0.8,0.7-2,1-3.4,1c-0.5,0-1,0-1.6-0.1s-1-0.2-1.3-0.3c-0.2-0.1-0.3-0.1-0.3-0.2
			C95.8,15,95.7,14.9,95.7,14.8z"/>
		<path class="st0" d="M105.5,11.3V3c0-0.2,0-0.4,0.1-0.5c0.1-0.1,0.3-0.2,0.6-0.2h1.5c0.3,0,0.5,0.1,0.5,0.2
			c0.1,0.1,0.1,0.3,0.1,0.5v8.3c0,0.5,0,0.8,0.2,1.1c0.2,0.5,0.6,0.7,1.2,0.7c0.5,0,0.8-0.1,1-0.4c0.2-0.3,0.3-0.7,0.3-1.4V3
			c0-0.2,0-0.4,0.1-0.5c0.1-0.1,0.3-0.2,0.6-0.2h1.5c0.3,0,0.5,0.1,0.5,0.2c0.1,0.1,0.1,0.3,0.1,0.5v8.3c0,1.1-0.2,2-0.6,2.7
			c-0.7,1.1-1.8,1.6-3.5,1.6c-1.6,0-2.8-0.5-3.5-1.6C105.7,13.4,105.5,12.5,105.5,11.3z"/>
		<path class="st0" d="M115.4,14.8V3c0-0.2,0-0.4,0.1-0.5c0.1-0.1,0.3-0.2,0.6-0.2h1.5c0.3,0,0.5,0.1,0.5,0.2
			c0.1,0.1,0.1,0.3,0.1,0.5v11.8c0,0.3-0.1,0.5-0.2,0.5c-0.1,0.1-0.3,0.1-0.5,0.1h-1.5c-0.2,0-0.4,0-0.5-0.1
			C115.5,15.3,115.4,15.1,115.4,14.8z"/>
		<path class="st0" d="M127,2.3c0.3,0,0.5,0.1,0.5,0.2c0.1,0.1,0.1,0.3,0.1,0.5v1.1c0,0.1,0,0.2,0,0.3c0,0.1-0.1,0.2-0.2,0.4
			l-4.4,7.9c-0.1,0.1-0.1,0.1,0,0.2c0,0.1,0.1,0.1,0.1,0.1h4c0.3,0,0.5,0.1,0.5,0.2c0.1,0.1,0.1,0.3,0.1,0.5v1.1
			c0,0.3-0.1,0.5-0.2,0.5c-0.1,0.1-0.3,0.1-0.5,0.1H120c-0.3,0-0.5-0.1-0.6-0.2c0-0.1-0.1-0.2-0.1-0.4v-1c0-0.3,0.1-0.5,0.2-0.8
			l4.6-8.1c0.1-0.2,0-0.3-0.2-0.3h-3.4c-0.2,0-0.4,0-0.5-0.1c-0.1-0.1-0.2-0.3-0.2-0.6V3c0-0.2,0-0.4,0.1-0.5
			c0.1-0.1,0.3-0.2,0.6-0.2H127z"/>
		<path class="st0" d="M131.9,2.3h2.4c0.2,0,0.3,0,0.4,0.1c0.1,0.1,0.2,0.2,0.2,0.4l3,12.1c0,0.1,0,0.2,0,0.2c0,0.2-0.1,0.3-0.4,0.3
			h-1.8c-0.2,0-0.3,0-0.4-0.2c-0.1-0.1-0.1-0.2-0.2-0.4l-0.4-1.4c0-0.2-0.2-0.3-0.4-0.3h-2.6c-0.2,0-0.3,0.1-0.4,0.3L131,15
			c0,0.1-0.1,0.2-0.2,0.3c-0.1,0.1-0.2,0.1-0.4,0.1h-1.8c-0.2,0-0.4-0.1-0.4-0.4c0,0,0-0.1,0-0.1c0,0,0-0.1,0-0.1l2.9-12.1
			c0-0.2,0.1-0.4,0.2-0.4C131.6,2.4,131.7,2.3,131.9,2.3z M132.3,10.7h1.6c0.1,0,0.2-0.1,0.1-0.3l-0.8-3.3c0,0,0-0.1-0.1-0.1
			c0,0-0.1-0.1-0.1-0.1c-0.1,0.1-0.1,0.1-0.1,0.2l-0.7,3.3C132.1,10.6,132.1,10.7,132.3,10.7z"/>
	</g>
	<g>
		<path class="st0" d="M16.3,27.7c0-0.5,0.2-1,0.5-1.3c0.4-0.4,0.8-0.5,1.3-0.5c0.5,0,1,0.2,1.3,0.5c0.4,0.4,0.5,0.8,0.5,1.3
			s-0.2,1-0.5,1.3c-0.4,0.4-0.8,0.5-1.3,0.5c-0.5,0-1-0.2-1.3-0.5C16.5,28.6,16.3,28.2,16.3,27.7z"/>
		<path class="st0" d="M27.4,33.8V22c0-0.2,0-0.4,0.1-0.5c0.1-0.1,0.3-0.2,0.6-0.2h3.3c1.4,0,2.5,0.4,3.2,1.2c0.7,0.8,1.1,2,1.1,3.5
			v3.2c0,1.4-0.2,2.5-0.7,3.3c-0.7,1.2-1.9,1.9-3.7,1.9h-3.2c-0.2,0-0.4,0-0.5-0.1C27.5,34.3,27.4,34.1,27.4,33.8z M30.2,24.2v7.5
			c0,0.1,0,0.2,0.1,0.3c0,0.1,0.1,0.1,0.3,0.1h0.6c0.6,0,1-0.2,1.3-0.6c0.3-0.4,0.4-1.1,0.4-2.2v-2.7c0-0.8-0.1-1.4-0.2-1.8
			c-0.3-0.7-0.7-1-1.4-1h-0.7c-0.2,0-0.2,0-0.3,0.1C30.2,23.9,30.2,24,30.2,24.2z"/>
		<path class="st0" d="M37.1,33.8V22c0-0.2,0-0.4,0.1-0.5c0.1-0.1,0.3-0.2,0.6-0.2h6.2c0.3,0,0.5,0.1,0.5,0.2
			c0.1,0.1,0.1,0.3,0.1,0.5v1.3c0,0.1,0,0.2-0.1,0.3c-0.1,0.1-0.2,0.1-0.4,0.1h-3.8c-0.2,0-0.3,0.1-0.3,0.3v2c0,0.2,0.1,0.3,0.2,0.3
			h3c0.1,0,0.2,0,0.3,0.1c0.1,0.1,0.1,0.2,0.1,0.3v1.7c0,0.3-0.1,0.4-0.4,0.4h-3c-0.2,0-0.2,0.1-0.2,0.3v2.7c0,0.2,0.1,0.2,0.2,0.2
			h4.2c0.2,0,0.4,0,0.4,0.1c0.1,0.1,0.1,0.2,0.1,0.3v1.3c0,0.2,0,0.4-0.1,0.5c-0.1,0.1-0.3,0.2-0.6,0.2h-6.4c-0.2,0-0.4,0-0.5-0.1
			C37.1,34.3,37.1,34.1,37.1,33.8z"/>
		<path class="st0" d="M46.4,33.7V32c0-0.2,0-0.3,0.1-0.3c0.1-0.1,0.2-0.1,0.3-0.1c0.1,0,0.2,0,0.4,0.1c0.1,0,0.2,0.1,0.3,0.1
			c0.2,0.1,0.5,0.1,1,0.2c0.4,0.1,0.8,0.1,1,0.1c0.6,0,1-0.1,1.3-0.3c0.3-0.2,0.5-0.5,0.5-1c0-0.6-0.4-1.1-1.1-1.7
			c-0.5-0.3-0.9-0.6-1.2-0.8c-0.9-0.6-1.6-1.1-1.9-1.6c-0.5-0.6-0.7-1.3-0.7-2.1c0-1.2,0.4-2,1.2-2.6c0.8-0.6,1.8-0.9,3.2-0.9
			c0.6,0,1.1,0.1,1.7,0.2c0.9,0.2,1.3,0.4,1.3,0.7v1.7c0,0.1,0,0.1,0,0.1c0,0.2-0.1,0.2-0.3,0.2l-0.9-0.2c-0.5-0.1-0.8-0.2-1-0.2
			c-0.1,0-0.3,0-0.6,0c-0.5,0-0.9,0.1-1.1,0.2c-0.2,0.2-0.3,0.4-0.3,0.6c0,0.4,0.7,1.1,2.1,2c0.8,0.6,1.4,1.1,1.8,1.6
			c0.6,0.8,0.9,1.7,0.9,2.7c0,1.2-0.4,2.1-1.2,2.8c-0.8,0.7-2,1-3.4,1c-0.5,0-1,0-1.6-0.1s-1-0.2-1.3-0.3c-0.2-0.1-0.3-0.1-0.3-0.2
			C46.4,33.9,46.4,33.8,46.4,33.7z"/>
		<path class="st0" d="M56,33.8V22c0-0.2,0-0.4,0.1-0.5c0.1-0.1,0.3-0.2,0.6-0.2h3.3c1.4,0,2.5,0.4,3.2,1.2c0.7,0.8,1.1,2,1.1,3.5
			v3.2c0,1.4-0.2,2.5-0.7,3.3c-0.7,1.2-1.9,1.9-3.7,1.9h-3.2c-0.2,0-0.4,0-0.5-0.1C56.1,34.3,56,34.1,56,33.8z M58.8,24.2v7.5
			c0,0.1,0,0.2,0.1,0.3c0,0.1,0.1,0.1,0.3,0.1h0.6c0.6,0,1-0.2,1.3-0.6c0.3-0.4,0.4-1.1,0.4-2.2v-2.7c0-0.8-0.1-1.4-0.2-1.8
			c-0.3-0.7-0.7-1-1.4-1h-0.7c-0.2,0-0.2,0-0.3,0.1C58.8,23.9,58.8,24,58.8,24.2z"/>
		<path class="st0" d="M65.6,33.8V22c0-0.2,0-0.4,0.1-0.5c0.1-0.1,0.3-0.2,0.6-0.2h6.2c0.3,0,0.5,0.1,0.5,0.2
			c0.1,0.1,0.1,0.3,0.1,0.5v1.3c0,0.1,0,0.2-0.1,0.3c-0.1,0.1-0.2,0.1-0.4,0.1h-3.8c-0.2,0-0.3,0.1-0.3,0.3v2c0,0.2,0.1,0.3,0.2,0.3
			h3c0.1,0,0.2,0,0.3,0.1c0.1,0.1,0.1,0.2,0.1,0.3v1.7c0,0.3-0.1,0.4-0.4,0.4h-3c-0.2,0-0.2,0.1-0.2,0.3v2.7c0,0.2,0.1,0.2,0.2,0.2
			h4.2c0.2,0,0.4,0,0.4,0.1c0.1,0.1,0.1,0.2,0.1,0.3v1.3c0,0.2,0,0.4-0.1,0.5c-0.1,0.1-0.3,0.2-0.6,0.2h-6.4c-0.2,0-0.4,0-0.5-0.1
			C65.7,34.3,65.6,34.1,65.6,33.8z"/>
		<path class="st0" d="M82.5,33.8v-8.7c0-0.2-0.1-0.2-0.2-0.2h-1.7c-0.3,0-0.5-0.1-0.5-0.2c-0.1-0.1-0.1-0.3-0.1-0.5v-0.9
			c0-0.2,0-0.3,0.1-0.4c0.1-0.2,0.2-0.2,0.5-0.2h0.5c0.3,0,0.7-0.1,1-0.2c0.3-0.1,0.6-0.3,0.8-0.5c0.2-0.3,0.4-0.5,0.4-0.6
			c0.1-0.1,0.2-0.1,0.4-0.1h1.1c0.3,0,0.5,0.1,0.5,0.2c0.1,0.1,0.1,0.3,0.1,0.5v11.8c0,0.3-0.1,0.5-0.2,0.5
			c-0.1,0.1-0.3,0.1-0.5,0.1h-1.5c-0.3,0-0.5-0.1-0.5-0.2C82.5,34.2,82.5,34,82.5,33.8z"/>
		<path class="st0" d="M94,25.2v5.1c0,1.2-0.2,2.1-0.6,2.7c-0.7,1.1-1.9,1.6-3.6,1.6c-1.3,0-2.1-0.1-2.5-0.4
			c-0.2-0.1-0.3-0.3-0.3-0.6v-1.4c0-0.2,0.1-0.2,0.3-0.2c0.5,0,0.9,0,1.1,0.1c0.5,0.2,0.9,0.3,1.2,0.3c0.7,0,1.2-0.2,1.4-0.7
			c0.1-0.3,0.2-0.7,0.2-1.2v-0.5c0-0.1-0.1-0.1-0.1-0.1c0,0-0.1,0-0.2,0.1c-0.1,0.1-0.2,0.1-0.3,0.2c-0.1,0.1-0.3,0.1-0.5,0.2
			c-0.2,0-0.5,0.1-0.7,0.1c-0.8,0-1.4-0.2-1.9-0.6c-0.6-0.5-0.9-1.4-0.9-2.4v-2.6c0-1.1,0.3-1.9,1-2.5c0.7-0.6,1.6-0.9,2.8-0.9
			c1.4,0,2.4,0.5,3,1.5C93.8,23.3,94,24.1,94,25.2z M89.3,24.5v2.3c0,0.7,0.3,1.1,1,1.1c0.3,0,0.5-0.1,0.7-0.3
			c0.2-0.2,0.3-0.5,0.3-0.8v-2.3c0-0.3-0.1-0.6-0.2-0.8c-0.2-0.2-0.4-0.3-0.7-0.3c-0.3,0-0.6,0.1-0.7,0.3
			C89.4,23.9,89.3,24.2,89.3,24.5z"/>
		<path class="st0" d="M100.9,34.5h-1.2c-0.3,0-0.5-0.1-0.5-0.2C99.1,34.2,99,34,99,33.8v-2.3c0-0.1-0.1-0.2-0.2-0.2h-3.3
			c-0.2,0-0.4,0-0.5-0.1c-0.1-0.1-0.2-0.3-0.2-0.6v-1.2c0-0.1,0-0.2,0.1-0.3C95,29.1,95,29,95,28.9l3.9-7.2c0.1-0.2,0.2-0.3,0.3-0.3
			c0.1-0.1,0.3-0.1,0.4-0.1h1.2c0.3,0,0.5,0.1,0.5,0.2c0.1,0.1,0.1,0.3,0.1,0.5v7.2c0,0.1,0.1,0.2,0.2,0.2h0.2
			c0.3,0,0.5,0.1,0.5,0.2c0.1,0.1,0.1,0.3,0.1,0.5v0.7c0,0.3-0.1,0.5-0.2,0.5c-0.1,0.1-0.3,0.1-0.5,0.1h-0.2c-0.1,0-0.2,0.1-0.2,0.2
			v2.3c0,0.2,0,0.4-0.1,0.5C101.4,34.4,101.2,34.5,100.9,34.5z M97.6,29.3h1.2c0.1,0,0.2-0.1,0.2-0.2v-2.8c0-0.1,0-0.2-0.1-0.2
			c0,0-0.1,0.1-0.2,0.3c-0.2,0.5-0.4,0.8-0.4,0.9c-0.2,0.5-0.4,0.9-0.6,1.1c-0.2,0.4-0.3,0.6-0.3,0.7C97.4,29.3,97.5,29.3,97.6,29.3
			z"/>
		<path class="st0" d="M110.1,34.5H104c-0.3,0-0.5-0.1-0.5-0.2c-0.1-0.1-0.1-0.3-0.1-0.5v-0.2c0-0.9,0.3-1.8,0.9-2.8
			c0.4-0.6,0.9-1.3,1.7-2.1c0.7-0.8,1.1-1.2,1.3-1.4c0.6-0.7,0.9-1.5,0.9-2.3c0-0.5-0.1-1-0.3-1.3c-0.2-0.3-0.5-0.4-0.9-0.4
			c-0.4,0-0.7,0.2-0.9,0.5c-0.1,0.2-0.2,0.5-0.2,0.9v0.4c0,0.3-0.1,0.5-0.2,0.5c-0.1,0.1-0.3,0.1-0.5,0.1H104c-0.2,0-0.4,0-0.5-0.1
			c-0.1-0.1-0.2-0.3-0.2-0.6v-0.5c0-1.3,0.4-2.3,1.3-2.9c0.7-0.5,1.5-0.7,2.4-0.7c1.1,0,2.1,0.4,2.8,1.1c0.7,0.7,1,1.7,1,2.8
			c0,1.2-0.3,2.1-0.9,2.8c-0.6,0.5-1.2,1.1-1.8,1.6c-0.8,0.7-1.3,1.5-1.5,2.5c0,0.1,0,0.2,0.1,0.2h3.4c0.2,0,0.4,0,0.5,0.1
			c0.1,0.1,0.2,0.3,0.2,0.6v0.9c0,0.3-0.1,0.5-0.2,0.5C110.5,34.4,110.3,34.5,110.1,34.5z"/>
		<path class="st0" d="M117.8,27.7c0-0.5,0.2-1,0.5-1.3c0.4-0.4,0.8-0.5,1.3-0.5c0.5,0,1,0.2,1.3,0.5c0.4,0.4,0.5,0.8,0.5,1.3
			s-0.2,1-0.5,1.3c-0.4,0.4-0.8,0.5-1.3,0.5c-0.5,0-1-0.2-1.3-0.5C118,28.6,117.8,28.2,117.8,27.7z"/>
	</g>
</g>
</svg>
