<?xml version="1.0" encoding="utf-8"?>
<!-- Generator: Adobe Illustrator 23.0.4, SVG Export Plug-In . SVG Version: 6.00 Build 0)  -->
<svg version="1.1" id="Layer_1" xmlns="http://www.w3.org/2000/svg" xmlns:xlink="http://www.w3.org/1999/xlink" x="0px" y="0px"
	 viewBox="0 0 504.4 504.4" style="enable-background:new 0 0 504.4 504.4;" xml:space="preserve">
<style type="text/css">
	.st0{fill:#FFFFFF;}
</style>
<g>
	<path class="st0" d="M476.6,27.7C458.2,9.2,435.9,0,409.8,0H94.6c-26,0-48.3,9.2-66.8,27.7C9.3,46.2,0,68.5,0,94.6v315.2
		c0,26,9.2,48.3,27.7,66.8c18.5,18.5,40.8,27.7,66.8,27.7h315.2c26,0,48.3-9.2,66.8-27.7c18.5-18.5,27.7-40.8,27.7-66.8V94.6
		C504.4,68.5,495.1,46.2,476.6,27.7z M385.9,194.1c0.2,2,0.3,4.9,0.3,8.9c0,18.4-2.7,36.8-8,55.3c-5.4,18.5-13.6,36.2-24.6,53.2
		c-11,17-24.2,32-39.6,45c-15.3,13-33.7,23.4-55.2,31.2c-21.4,7.8-44.4,11.7-69,11.7c-38.1,0-73.3-10.3-105.7-30.9
		c5.3,0.7,10.7,1,16.4,1c31.7,0,60.3-9.9,85.7-29.6c-14.9-0.2-28.2-4.8-39.9-13.8c-11.7-9-19.9-20.4-24.5-34.2
		c5.7,0.9,10,1.3,12.8,1.3c4.8,0,10.4-0.9,16.7-2.6c-16-3.1-29.4-11-40.4-23.8C100.1,254,94.6,239.4,94.6,223v-0.7
		c11.6,5.5,22.5,8.3,32.8,8.5c-19.9-13.4-29.9-32.5-29.9-57.5c0-12.3,3.2-23.9,9.5-34.8c17.3,21.2,38.3,38.2,63,50.9
		c24.7,12.7,51.2,19.8,79.5,21.3c-1.1-4.2-1.6-9.4-1.6-15.8c0-19,6.7-35.3,20.2-48.8c13.5-13.5,29.7-20.2,48.8-20.2
		c20.1,0,36.9,7.2,50.2,21.7c15.1-2.8,29.8-8.4,44-16.7c-5.5,16.9-15.7,29.7-30.5,38.4c14.2-2,27.5-5.7,39.7-11.2
		C411.1,172.3,399.6,184.2,385.9,194.1z"/>
</g>
</svg>
